<svg width="75" height="69" viewBox="0 0 75 69" fill="none" xmlns="http://www.w3.org/2000/svg">
<path d="M62.2233 19.8779H12.4445C9.00801 19.8779 6.22217 22.4207 6.22217 25.5573V53.9543C6.22217 57.091 9.00801 59.6338 12.4445 59.6338H62.2233C65.6598 59.6338 68.4456 57.091 68.4456 53.9543V25.5573C68.4456 22.4207 65.6598 19.8779 62.2233 19.8779Z" stroke="white" stroke-width="4" stroke-linecap="round" stroke-linejoin="round"/>
<path d="M49.7785 59.6337V14.1984C49.7785 12.6922 49.123 11.2476 47.9561 10.1825C46.7891 9.11741 45.2065 8.51904 43.5562 8.51904H31.1115C29.4612 8.51904 27.8786 9.11741 26.7116 10.1825C25.5447 11.2476 24.8892 12.6922 24.8892 14.1984V59.6337" stroke="white" stroke-width="4" stroke-linecap="round" stroke-linejoin="round"/>
</svg>
